<svg width="1400" height="900" viewBox="0 0 1400 900" xmlns="http://www.w3.org/2000/svg">
  <defs>
    <linearGradient id="bg" x1="0" y1="0" x2="1" y2="1">
      <stop offset="0%" stop-color="#131313"/>
      <stop offset="100%" stop-color="#2c211c"/>
    </linearGradient>
    <linearGradient id="redA" x1="0" y1="0" x2="1" y2="1">
      <stop offset="0%" stop-color="#ff7a3d"/>
      <stop offset="100%" stop-color="#ba2f1a"/>
    </linearGradient>
    <linearGradient id="redB" x1="0" y1="0" x2="1" y2="1">
      <stop offset="0%" stop-color="#d45d2f"/>
      <stop offset="100%" stop-color="#8f2418"/>
    </linearGradient>
    <filter id="shadow" x="-20%" y="-20%" width="160%" height="160%">
      <feDropShadow dx="0" dy="18" stdDeviation="16" flood-color="#000000" flood-opacity="0.42"/>
    </filter>
  </defs>
  <rect width="1400" height="900" fill="url(#bg)"/>
  <circle cx="1220" cy="130" r="240" fill="#5e1f18" opacity="0.42"/>
  <circle cx="150" cy="810" r="220" fill="#421814" opacity="0.5"/>
  <path d="M0 740 C250 650, 540 660, 770 748 S1140 820, 1400 700 L1400 900 L0 900 Z" fill="#090909" opacity="0.56"/>

  <rect x="76" y="76" width="760" height="96" rx="28" fill="#0e0e0e" opacity="0.84"/>
  <text x="112" y="118" font-family="Arial, sans-serif" font-size="28" font-weight="700" fill="#ff8a4c">COINLINEUP BEGINNER EXPLAINER</text>
  <text x="112" y="156" font-family="Arial, sans-serif" font-size="40" font-weight="800" fill="#fff4e4">Why the Court said IEEPA does not authorize tariffs</text>

  <g transform="translate(110 238)" filter="url(#shadow)">
    <rect x="-12" y="-12" width="368" height="420" rx="34" fill="none" stroke="#ffffff" stroke-width="16"/>
    <rect width="344" height="396" rx="28" fill="url(#redA)"/>
    <text x="32" y="62" font-family="Arial, sans-serif" font-size="32" font-weight="800" fill="#fff4e4">1. Broad emergency</text>
    <rect x="32" y="104" width="250" height="18" rx="9" fill="#fff4e4" opacity="0.92"/>
    <rect x="32" y="140" width="220" height="18" rx="9" fill="#fff4e4" opacity="0.72"/>
    <rect x="32" y="176" width="244" height="18" rx="9" fill="#fff4e4" opacity="0.72"/>
    <rect x="32" y="212" width="198" height="18" rx="9" fill="#fff4e4" opacity="0.72"/>
    <circle cx="272" cy="310" r="44" fill="#171717"/>
    <text x="254" y="322" font-family="Georgia, serif" font-size="48" font-weight="700" fill="#fff4e4">1</text>
  </g>

  <g transform="translate(528 220)" filter="url(#shadow)">
    <rect x="-12" y="-12" width="368" height="420" rx="34" fill="none" stroke="#ffffff" stroke-width="16"/>
    <rect width="344" height="396" rx="28" fill="url(#redB)"/>
    <text x="32" y="62" font-family="Arial, sans-serif" font-size="32" font-weight="800" fill="#fff4e4">2. Tariffs are specific</text>
    <rect x="32" y="104" width="266" height="18" rx="9" fill="#fff4e4" opacity="0.92"/>
    <rect x="32" y="140" width="228" height="18" rx="9" fill="#fff4e4" opacity="0.72"/>
    <rect x="32" y="176" width="254" height="18" rx="9" fill="#fff4e4" opacity="0.72"/>
    <rect x="32" y="212" width="206" height="18" rx="9" fill="#fff4e4" opacity="0.72"/>
    <circle cx="272" cy="310" r="44" fill="#171717"/>
    <text x="252" y="322" font-family="Georgia, serif" font-size="48" font-weight="700" fill="#fff4e4">2</text>
  </g>

  <g transform="translate(944 238)" filter="url(#shadow)">
    <rect x="-12" y="-12" width="368" height="420" rx="34" fill="none" stroke="#ffffff" stroke-width="16"/>
    <rect width="344" height="396" rx="28" fill="url(#redA)"/>
    <text x="32" y="62" font-family="Arial, sans-serif" font-size="32" font-weight="800" fill="#fff4e4">3. Clear delegation</text>
    <rect x="32" y="104" width="246" height="18" rx="9" fill="#fff4e4" opacity="0.92"/>
    <rect x="32" y="140" width="226" height="18" rx="9" fill="#fff4e4" opacity="0.72"/>
    <rect x="32" y="176" width="244" height="18" rx="9" fill="#fff4e4" opacity="0.72"/>
    <rect x="32" y="212" width="182" height="18" rx="9" fill="#fff4e4" opacity="0.72"/>
    <circle cx="272" cy="310" r="44" fill="#171717"/>
    <text x="252" y="322" font-family="Georgia, serif" font-size="48" font-weight="700" fill="#fff4e4">3</text>
  </g>

  <path d="M454 438 C498 420, 528 418, 552 418" fill="none" stroke="#ffffff" stroke-width="12" stroke-linecap="round"/>
  <path d="M870 438 C914 420, 944 418, 968 418" fill="none" stroke="#ffffff" stroke-width="12" stroke-linecap="round"/>
  <path d="M454 438 C498 420, 528 418, 552 418" fill="none" stroke="#ff8a4c" stroke-width="6" stroke-linecap="round"/>
  <path d="M870 438 C914 420, 944 418, 968 418" fill="none" stroke="#ff8a4c" stroke-width="6" stroke-linecap="round"/>

  <rect x="188" y="744" width="1024" height="86" rx="26" fill="#0d0d0d" opacity="0.84"/>
  <text x="222" y="798" font-family="Arial, sans-serif" font-size="38" font-weight="800" fill="#fff4e4">Result: IEEPA is broad, but not a blank check for tariffs.</text>
</svg>
