<svg width="1400" height="900" viewBox="0 0 1400 900" xmlns="http://www.w3.org/2000/svg">
  <defs>
    <linearGradient id="bg" x1="0" y1="0" x2="1" y2="1">
      <stop offset="0%" stop-color="#121212"/>
      <stop offset="100%" stop-color="#2a211c"/>
    </linearGradient>
    <linearGradient id="warm" x1="0" y1="0" x2="1" y2="1">
      <stop offset="0%" stop-color="#ff8b40"/>
      <stop offset="100%" stop-color="#b62b17"/>
    </linearGradient>
    <linearGradient id="warm2" x1="0" y1="0" x2="1" y2="1">
      <stop offset="0%" stop-color="#d15b2d"/>
      <stop offset="100%" stop-color="#8e2418"/>
    </linearGradient>
    <filter id="shadow" x="-20%" y="-20%" width="160%" height="160%">
      <feDropShadow dx="0" dy="16" stdDeviation="14" flood-color="#000000" flood-opacity="0.42"/>
    </filter>
  </defs>
  <rect width="1400" height="900" fill="url(#bg)"/>
  <circle cx="1240" cy="142" r="226" fill="#5b1f18" opacity="0.4"/>
  <circle cx="122" cy="772" r="210" fill="#411814" opacity="0.48"/>
  <path d="M0 742 C230 646, 560 656, 804 758 S1160 826, 1400 706 L1400 900 L0 900 Z" fill="#090909" opacity="0.58"/>

  <rect x="72" y="72" width="730" height="94" rx="28" fill="#0e0e0e" opacity="0.84"/>
  <text x="106" y="114" font-family="Arial, sans-serif" font-size="28" font-weight="700" fill="#ff8a3f">COINLINEUP BEGINNER EXPLAINER</text>
  <text x="106" y="150" font-family="Arial, sans-serif" font-size="38" font-weight="800" fill="#fff4e4">How to read ZEC price and open interest together</text>

  <text x="642" y="216" font-family="Arial, sans-serif" font-size="28" font-weight="700" fill="#fff4e4">Open interest</text>
  <text x="500" y="254" font-family="Arial, sans-serif" font-size="28" font-weight="800" fill="#ff8a3f">Up</text>
  <text x="870" y="254" font-family="Arial, sans-serif" font-size="28" font-weight="800" fill="#ff8a3f">Down</text>
  <text x="108" y="408" font-family="Arial, sans-serif" font-size="28" font-weight="800" fill="#fff4e4" transform="rotate(-90 108 408)">Price Up</text>
  <text x="108" y="674" font-family="Arial, sans-serif" font-size="28" font-weight="800" fill="#fff4e4" transform="rotate(-90 108 674)">Price Down</text>

  <g transform="translate(192 284)" filter="url(#shadow)">
    <rect x="-12" y="-12" width="430" height="188" rx="30" fill="none" stroke="#ffffff" stroke-width="16"/>
    <rect width="406" height="164" rx="24" fill="url(#warm)"/>
    <text x="28" y="56" font-family="Arial, sans-serif" font-size="34" font-weight="800" fill="#fff4e4">Fresh participation</text>
    <rect x="28" y="94" width="252" height="16" rx="8" fill="#fff4e4" opacity="0.9"/>
    <rect x="28" y="126" width="208" height="16" rx="8" fill="#fff4e4" opacity="0.68"/>
  </g>

  <g transform="translate(792 284)" filter="url(#shadow)">
    <rect x="-12" y="-12" width="430" height="188" rx="30" fill="none" stroke="#ffffff" stroke-width="16"/>
    <rect width="406" height="164" rx="24" fill="url(#warm2)"/>
    <text x="28" y="56" font-family="Arial, sans-serif" font-size="34" font-weight="800" fill="#fff4e4">Short covering</text>
    <rect x="28" y="94" width="236" height="16" rx="8" fill="#fff4e4" opacity="0.9"/>
    <rect x="28" y="126" width="188" height="16" rx="8" fill="#fff4e4" opacity="0.68"/>
  </g>

  <g transform="translate(192 548)" filter="url(#shadow)">
    <rect x="-12" y="-12" width="430" height="188" rx="30" fill="none" stroke="#ffffff" stroke-width="16"/>
    <rect width="406" height="164" rx="24" fill="url(#warm2)"/>
    <text x="28" y="56" font-family="Arial, sans-serif" font-size="34" font-weight="800" fill="#fff4e4">Bearish buildup</text>
    <rect x="28" y="94" width="220" height="16" rx="8" fill="#fff4e4" opacity="0.9"/>
    <rect x="28" y="126" width="202" height="16" rx="8" fill="#fff4e4" opacity="0.68"/>
  </g>

  <g transform="translate(792 548)" filter="url(#shadow)">
    <rect x="-12" y="-12" width="430" height="188" rx="30" fill="none" stroke="#ffffff" stroke-width="16"/>
    <rect width="406" height="164" rx="24" fill="url(#warm)"/>
    <text x="28" y="56" font-family="Arial, sans-serif" font-size="34" font-weight="800" fill="#fff4e4">Positions exiting</text>
    <rect x="28" y="94" width="244" height="16" rx="8" fill="#fff4e4" opacity="0.9"/>
    <rect x="28" y="126" width="194" height="16" rx="8" fill="#fff4e4" opacity="0.68"/>
  </g>
</svg>
