<svg width="1600" height="900" viewBox="0 0 1600 900" xmlns="http://www.w3.org/2000/svg">
  <defs>
    <linearGradient id="bg" x1="0" y1="0" x2="1" y2="1">
      <stop offset="0%" stop-color="#f4efe3"/>
      <stop offset="100%" stop-color="#efe3ce"/>
    </linearGradient>
    <linearGradient id="ink" x1="0" y1="0" x2="1" y2="1">
      <stop offset="0%" stop-color="#a52a1f"/>
      <stop offset="100%" stop-color="#d5612d"/>
    </linearGradient>
    <filter id="grain">
      <feTurbulence type="fractalNoise" baseFrequency="0.9" numOctaves="2" stitchTiles="stitch"/>
      <feColorMatrix type="saturate" values="0"/>
      <feComponentTransfer>
        <feFuncA type="table" tableValues="0 0.06"/>
      </feComponentTransfer>
    </filter>
  </defs>
  <rect width="1600" height="900" fill="url(#bg)"/>
  <rect width="1600" height="900" filter="url(#grain)" opacity="0.45"/>
  <rect x="0" y="620" width="1600" height="280" fill="#b43c25"/>
  <polygon points="970,900 1320,900 1110,540" fill="#802617"/>
  <rect x="125" y="120" width="510" height="500" rx="28" fill="#f8f1e5" stroke="#802617" stroke-width="8"/>
  <rect x="165" y="180" width="430" height="16" fill="#d5612d"/>
  <rect x="165" y="230" width="380" height="14" fill="#cc7c55"/>
  <rect x="165" y="272" width="400" height="14" fill="#cc7c55"/>
  <rect x="165" y="314" width="345" height="14" fill="#cc7c55"/>
  <rect x="165" y="356" width="420" height="14" fill="#cc7c55"/>
  <rect x="165" y="398" width="280" height="14" fill="#cc7c55"/>
  <text x="165" y="154" font-family="Georgia, serif" font-size="38" fill="#802617">IEEPA</text>
  <g transform="translate(810 130)">
    <rect x="0" y="0" width="420" height="230" rx="24" fill="url(#ink)"/>
    <rect x="40" y="48" width="340" height="22" fill="#f8f1e5" opacity="0.95"/>
    <rect x="40" y="96" width="270" height="18" fill="#f8f1e5" opacity="0.75"/>
    <rect x="40" y="136" width="310" height="18" fill="#f8f1e5" opacity="0.75"/>
    <text x="40" y="205" font-family="Arial, sans-serif" font-size="44" font-weight="700" fill="#f8f1e5">TARIFFS</text>
  </g>
  <g transform="translate(1030 350)">
    <rect x="0" y="0" width="350" height="220" fill="#f4d7b3" stroke="#802617" stroke-width="8"/>
    <line x1="58" y1="48" x2="292" y2="48" stroke="#802617" stroke-width="10"/>
    <line x1="58" y1="96" x2="292" y2="96" stroke="#802617" stroke-width="10"/>
    <line x1="58" y1="144" x2="292" y2="144" stroke="#802617" stroke-width="10"/>
    <circle cx="70" cy="184" r="16" fill="#a52a1f"/>
    <circle cx="126" cy="184" r="16" fill="#a52a1f"/>
    <circle cx="182" cy="184" r="16" fill="#a52a1f"/>
  </g>
  <text x="128" y="735" font-family="Arial, sans-serif" font-size="68" font-weight="800" fill="#f8f1e5">CAN EMERGENCY POWERS</text>
  <text x="128" y="810" font-family="Arial, sans-serif" font-size="68" font-weight="800" fill="#f8f1e5">BE USED FOR TARIFFS?</text>
  <text x="130" y="858" font-family="Arial, sans-serif" font-size="28" fill="#f2d3c2">Beginner explainer on IEEPA, tariffs, and the Supreme Court ruling</text>
</svg>
